<?xml version="1.0" encoding="UTF-8" standalone="no"?>
<!DOCTYPE svg PUBLIC "-//W3C//DTD SVG 1.1//EN" "http://www.w3.org/Graphics/SVG/1.1/DTD/svg11.dtd">
<svg width="100%" height="100%" viewBox="0 0 75 75" version="1.1" xmlns="http://www.w3.org/2000/svg" xmlns:xlink="http://www.w3.org/1999/xlink" xml:space="preserve" xmlns:serif="http://www.serif.com/" style="fill-rule:evenodd;clip-rule:evenodd;stroke-linejoin:round;stroke-miterlimit:2;">
    <g transform="matrix(1,0,0,1,-1014,-207)">
        <rect id="Монтажная-область1" serif:id="Монтажная область1" x="0" y="0" width="1125" height="2436" style="fill:none;"/>
        <g id="Монтажная-область11" serif:id="Монтажная область1">
            <rect x="0" y="0" width="1125" height="2436" style="fill:rgb(242,242,242);"/>
            <g id="Title-with-actions---large-Title" serif:id="Title with actions - large Title" transform="matrix(1.5,0,0,2.25,1.11022e-16,-927.785)">
                <rect x="0" y="471" width="750" height="196" style="fill:none;"/>
                <clipPath id="_clip1">
                    <rect x="0" y="471" width="750" height="196"/>
                </clipPath>
                <g clip-path="url(#_clip1)">
                    <g transform="matrix(1,0,0,0.55102,7.40149e-17,179.51)">
                        <rect x="0" y="529" width="750" height="196" style="fill:none;"/>
                        <g transform="matrix(1.13293,0,0,1.00513,-2866.31,24.4256)">
                            <rect x="2530" y="502" width="662" height="195" style="fill:white;"/>
                        </g>
                    </g>
                </g>
            </g>
            <g id="Alarm--small-" serif:id="Alarm (small)" transform="matrix(3.125,0,0,2.88462,-773.812,-1044.3)">
                <path d="M587,456.785C586.9,458.485 585.7,459.785 584,459.785C582.3,459.785 581,458.485 581,456.785L587,456.785ZM595.5,453.885C595.3,453.785 595.2,453.685 595,453.685C594.1,453.285 593.4,452.285 593,451.485C592.3,450.385 592,449.085 592,447.785L592,443.785C592,439.685 588.9,436.385 585,435.885L585,434.785C585,434.185 584.6,433.785 584,433.785C583.4,433.785 583,434.185 583,434.785L583,435.885C579.1,436.385 576,439.785 576,443.785L576,447.785C576,448.985 575.7,450.185 575.2,451.185C574.8,451.985 574.3,452.685 573.6,453.285C573.3,453.585 572.9,453.685 572.6,453.885C572.3,453.985 572.1,454.285 572.1,454.685C572.1,455.285 572.5,455.685 573.1,455.685L595.1,455.685C595.7,455.685 596.1,455.285 596.1,454.685C596,454.485 595.8,454.085 595.5,453.885Z" style="fill:rgb(153,153,153);"/>
            </g>
        </g>
    </g>
</svg>
