<?xml version="1.0" encoding="UTF-8" standalone="no"?>
<!DOCTYPE svg PUBLIC "-//W3C//DTD SVG 1.1//EN" "http://www.w3.org/Graphics/SVG/1.1/DTD/svg11.dtd">
<svg width="100%" height="100%" viewBox="0 0 85 73" version="1.1" xmlns="http://www.w3.org/2000/svg" xmlns:xlink="http://www.w3.org/1999/xlink" xml:space="preserve" xmlns:serif="http://www.serif.com/" style="fill-rule:evenodd;clip-rule:evenodd;stroke-linejoin:round;stroke-miterlimit:2;">
    <g transform="matrix(1,0,0,1,-800.961,-2115.74)">
        <rect id="Монтажная-область1" serif:id="Монтажная область1" x="0" y="0" width="1125" height="2436" style="fill:none;"/>
        <g id="Монтажная-область11" serif:id="Монтажная область1">
            <rect x="0" y="0" width="1125" height="2436" style="fill:rgb(242,242,242);"/>
            <g id="Toolbar" transform="matrix(2.34428,3.11646e-16,1.43812e-16,3.81122,-5361.4,-2068.87)">
                <rect x="2287.14" y="1084" width="479.766" height="98" style="fill:none;"/>
                <clipPath id="_clip1">
                    <rect x="2287.14" y="1084" width="479.766" height="98"/>
                </clipPath>
                <g clip-path="url(#_clip1)">
                    <g transform="matrix(4.8214,-3.94913e-16,-6.79724e-17,1.10762,179.394,-1374.71)">
                        <rect x="437.165" y="2219.81" width="99.508" height="88.478" style="fill:white;"/>
                    </g>
                    <g transform="matrix(0.639939,-1.89162e-17,-6.67991e-17,0.393626,2530.45,728.749)">
                        <g transform="matrix(0.446512,0,0,0.64,-1011.8,346.32)">
                            <rect x="2565" y="912" width="215" height="100" style="fill:none;"/>
                        </g>
                        <g transform="matrix(0.260465,0,0,0.56,-514.593,423.28)">
                            <rect x="2565" y="912" width="215" height="100" style="fill:none;"/>
                            <clipPath id="_clip2">
                                <rect x="2565" y="912" width="215" height="100"/>
                            </clipPath>
                            <g clip-path="url(#_clip2)">
                                <g transform="matrix(7.67823,-1.44926e-16,3.66943e-16,3.57127,775.983,569.161)">
                                    <path d="M259.573,104.353C260.362,104.353 261,104.995 261,105.787L261,120.565C261,121.357 260.362,122 259.573,122L234.43,122C233.64,122 233,121.357 233,120.565L233,105.787C233,104.995 233.64,104.353 234.43,104.353L259.573,104.353ZM236.226,102.564C235.798,102.564 235.451,102.216 235.451,101.786C235.451,101.358 235.798,101.01 236.226,101.01L257.837,101.01C258.265,101.01 258.611,101.358 258.611,101.786C258.611,102.216 258.265,102.564 257.837,102.564L236.226,102.564ZM238.096,99.555C237.71,99.555 237.395,99.241 237.395,98.852L237.395,98.703C237.395,98.315 237.71,98 238.096,98L255.638,98C256.024,98 256.338,98.315 256.338,98.703L256.338,98.852C256.338,99.241 256.024,99.555 255.638,99.555L238.096,99.555Z" style="fill:rgb(142,142,147);"/>
                                </g>
                            </g>
                        </g>
                        <g transform="matrix(1,0,0,0.98,-2491,18.6)">
                            <rect x="2624.5" y="930" width="96" height="100" style="fill:none;"/>
                        </g>
                    </g>
                </g>
            </g>
        </g>
    </g>
</svg>
