<?xml version="1.0" encoding="UTF-8" standalone="no"?>
<!DOCTYPE svg PUBLIC "-//W3C//DTD SVG 1.1//EN" "http://www.w3.org/Graphics/SVG/1.1/DTD/svg11.dtd">
<svg width="100%" height="100%" viewBox="0 0 87 87" version="1.1" xmlns="http://www.w3.org/2000/svg" xmlns:xlink="http://www.w3.org/1999/xlink" xml:space="preserve" xmlns:serif="http://www.serif.com/" style="fill-rule:evenodd;clip-rule:evenodd;stroke-linejoin:round;stroke-miterlimit:2;">
    <g transform="matrix(1,0,0,1,-29.7053,-983.107)">
        <rect id="Монтажная-область1" serif:id="Монтажная область1" x="0" y="0" width="1125" height="2436" style="fill:none;"/>
        <clipPath id="_clip1">
            <rect id="Монтажная-область11" serif:id="Монтажная область1" x="0" y="0" width="1125" height="2436"/>
        </clipPath>
        <g clip-path="url(#_clip1)">
            <rect x="0" y="0" width="1125" height="2436" style="fill:rgb(242,242,242);"/>
            <g id="Icon-and-Label" serif:id="Icon and Label" transform="matrix(0.686466,-5.20722e-17,-1.0365e-16,1.41197,-136.09,570.735)">
                <rect x="197.818" y="276.112" width="1638.4" height="93.487" style="fill:none;"/>
                <clipPath id="_clip2">
                    <rect x="197.818" y="276.112" width="1638.4" height="93.487"/>
                </clipPath>
                <g clip-path="url(#_clip2)">
                    <g transform="matrix(16.4651,6.06733e-16,1.59366e-16,1.05661,-7000.13,-2069.37)">
                        <rect x="437.165" y="2219.81" width="99.508" height="88.478" style="fill:white;"/>
                    </g>
                    <g transform="matrix(2.18453,9.2241e-17,1.40062e-16,1.06207,175.984,-121.09)">
                        <path d="M75,447L43,447C35.8,447 30,441.2 30,434L30,402C30,394.8 35.8,389 43,389L75,389C82.2,389 88,394.8 88,402L88,434C88,441.2 82.2,447 75,447Z" style="fill:rgb(30,121,200);fill-rule:nonzero;"/>
                    </g>
                    <g id="Hail" transform="matrix(4.37021,1.50696e-16,3.64379e-16,2.1247,-1139.13,-157.977)">
                        <path d="M327.5,223.362L327.5,235.002C327.5,235.554 327.948,236 328.5,236C329.056,236 329.5,235.553 329.5,235.002L329.5,228.5L330,228.5L330,235.002C330,235.554 330.448,236 331,236C331.556,236 332,235.553 332,235.002L332,223.495L332.493,223.495C332.817,223.495 332.988,223.932 333.013,224L333,224L333,227.757C333,228.162 333.336,228.5 333.75,228.5C334.167,228.5 334.5,228.167 334.5,227.757L334.5,224L334.49,224C334.474,223.812 334.365,222.857 333.766,221.935C333.37,221.325 332.579,221.102 332,221.021L332,221L331.824,221C331.518,220.969 331.305,220.978 331.305,220.978L331.305,221L327.55,221L326.024,219.834C325.819,219.678 325.61,219.313 325.58,219.037L325.206,215.586C325.183,215.372 324.986,215.191 324.767,215.198L324.638,215.203C324.421,215.21 324.249,215.393 324.257,215.611L324.414,220.205C324.423,220.49 324.598,220.857 324.805,221.035L327.5,223.362ZM329.6,220.5C330.705,220.5 331.6,219.605 331.6,218.5C331.6,217.395 330.705,216.5 329.6,216.5C328.495,216.5 327.6,217.395 327.6,218.5C327.6,219.605 328.495,220.5 329.6,220.5Z" style="fill:white;"/>
                    </g>
                </g>
            </g>
        </g>
    </g>
</svg>
