<?xml version="1.0" encoding="UTF-8" standalone="no"?>
<!DOCTYPE svg PUBLIC "-//W3C//DTD SVG 1.1//EN" "http://www.w3.org/Graphics/SVG/1.1/DTD/svg11.dtd">
<svg width="100%" height="100%" viewBox="0 0 87 87" version="1.1" xmlns="http://www.w3.org/2000/svg" xmlns:xlink="http://www.w3.org/1999/xlink" xml:space="preserve" xmlns:serif="http://www.serif.com/" style="fill-rule:evenodd;clip-rule:evenodd;stroke-linejoin:round;stroke-miterlimit:2;">
    <g transform="matrix(1,0,0,1,-30,-1247.11)">
        <rect id="Монтажная-область1" serif:id="Монтажная область1" x="0" y="0" width="1125" height="2436" style="fill:none;"/>
        <g id="Монтажная-область11" serif:id="Монтажная область1">
            <rect x="0" y="0" width="1125" height="2436" style="fill:rgb(242,242,242);"/>
            <g id="Icon-and-Label" serif:id="Icon and Label" transform="matrix(0.686466,-5.20722e-17,-1.0365e-16,1.41197,-135.795,834.735)">
                <rect x="197.818" y="276.112" width="1638.4" height="93.487" style="fill:none;"/>
                <clipPath id="_clip1">
                    <rect x="197.818" y="276.112" width="1638.4" height="93.487"/>
                </clipPath>
                <g clip-path="url(#_clip1)">
                    <g transform="matrix(16.4651,6.06733e-16,1.59366e-16,1.05661,-7000.13,-2069.37)">
                        <rect x="437.165" y="2219.81" width="99.508" height="88.478" style="fill:white;"/>
                    </g>
                    <g transform="matrix(2.18453,9.2241e-17,1.40062e-16,1.06207,175.984,-121.09)">
                        <path d="M75,447L43,447C35.8,447 30,441.2 30,434L30,402C30,394.8 35.8,389 43,389L75,389C82.2,389 88,394.8 88,402L88,434C88,441.2 82.2,447 75,447Z" style="fill:rgb(191,30,200);fill-rule:nonzero;"/>
                    </g>
                    <g id="Favourite--small-" serif:id="Favourite (small)" transform="matrix(2.18511,8.0585e-17,1.60405e-16,1.06235,-16.4523,91.2632)">
                        <path d="M153.7,221L163,214L150.9,214L147,202L143.1,214L131,214L140.3,221L137,233L147,225.2L157,233L153.7,221Z" style="fill:white;fill-rule:nonzero;"/>
                    </g>
                </g>
            </g>
        </g>
    </g>
</svg>
